<svg width="35" height="35" viewBox="0 0 35 35" fill="none" xmlns="http://www.w3.org/2000/svg">
<path fill-rule="evenodd" clip-rule="evenodd" d="M3.85845 3.65219C3.20418 3.72562 2.63258 3.80799 2.58814 3.8352C2.46164 3.91269 2.47567 23.4473 2.60225 23.5514C2.6545 23.5944 3.48282 23.8014 4.44302 24.0115C5.86978 24.3238 6.32163 24.3936 6.91491 24.3936C7.51867 24.3936 7.66178 24.3708 7.76492 24.2578C7.87678 24.1353 7.89089 23.6055 7.90939 18.84L7.92987 13.558L8.14267 13.3766C8.40834 13.1502 8.71738 13.1452 8.9967 13.3629C9.11501 13.4551 10.2175 14.4368 11.4468 15.5443C12.676 16.6518 13.7592 17.5773 13.8541 17.6008C13.949 17.6244 14.3441 17.5735 14.7323 17.4878C15.8735 17.2355 16.3645 17.1797 17.4477 17.1795C18.4601 17.1792 19.4512 17.297 20.3786 17.5278C20.6414 17.5933 20.9448 17.6249 21.0528 17.5979C21.1607 17.5711 21.6649 17.1735 22.1734 16.7144C23.1906 15.7957 23.3951 15.6112 24.6154 14.5105C25.0738 14.0971 25.4658 13.7419 25.4866 13.7212C26.0691 13.142 26.4221 13.0585 26.7817 13.4149L27.0034 13.6346V24.1597L27.172 24.2766C27.4779 24.489 28.5818 24.4315 29.9057 24.1343C30.541 23.9916 31.3338 23.8203 31.6675 23.7538C32.0177 23.6839 32.3143 23.5809 32.369 23.5103C32.5118 23.326 32.5074 4.11396 32.3646 3.92035C32.2833 3.81017 32.0126 3.75944 30.867 3.63972C30.0979 3.55937 29.2935 3.50353 29.0794 3.51556L28.6901 3.53758L24.6522 7.18269C19.078 12.2147 19.4083 11.9292 19.2299 11.8673C19.1465 11.8384 18.2531 11.8122 17.2445 11.8091C15.5005 11.8038 15.4022 11.7959 15.2348 11.6477C14.82 11.2805 12.244 8.96196 10.3904 7.28754C9.28739 6.29111 7.89013 5.03132 7.28539 4.48794L6.1858 3.5L5.61693 3.50932C5.30402 3.51451 4.51271 3.57876 3.85845 3.65219Z" fill="#FAFAFA"/>
<path d="M17.89 26.5689C17.7165 26.8676 17.2828 26.8676 17.1093 26.5689L16.4587 25.4491C16.2853 25.1505 16.5021 24.7772 16.8491 24.7772H18.1503C18.4972 24.7772 18.7141 25.1505 18.5406 25.4491L17.89 26.5689Z" fill="#FAFAFA"/>
<path d="M2.5 26.121C2.5 25.8324 2.73543 25.5984 3.02586 25.5984H10.2376C10.5281 25.5984 10.7635 25.8324 10.7635 26.121C10.7635 26.4096 10.5281 26.6436 10.2376 26.6436H3.02586C2.73543 26.6436 2.5 26.4096 2.5 26.121Z" fill="#FAFAFA"/>
<path d="M2.90126 31.1521C2.80412 30.8801 2.94724 30.5813 3.22094 30.4848L10.0173 28.0876C10.291 27.991 10.5917 28.1333 10.6888 28.4053C10.7859 28.6773 10.6428 28.976 10.3691 29.0725L3.57271 31.4698C3.29902 31.5663 2.9984 31.4241 2.90126 31.1521Z" fill="#FAFAFA"/>
<path d="M32.5 26.121C32.5 25.8324 32.2646 25.5984 31.9741 25.5984H24.7624C24.4719 25.5984 24.2365 25.8324 24.2365 26.121C24.2365 26.4096 24.4719 26.6436 24.7624 26.6436H31.9741C32.2646 26.6436 32.5 26.4096 32.5 26.121Z" fill="#FAFAFA"/>
<path d="M32.0987 31.1521C32.1959 30.8801 32.0528 30.5813 31.7791 30.4848L24.9827 28.0876C24.709 27.991 24.4083 28.1333 24.3112 28.4053C24.2141 28.6773 24.3572 28.976 24.6309 29.0725L31.4273 31.4698C31.701 31.5663 32.0016 31.4241 32.0987 31.1521Z" fill="#FAFAFA"/>
</svg>
