<svg width="30" height="30" viewBox="0 0 30 30" fill="none" xmlns="http://www.w3.org/2000/svg">
<rect width="30" height="30" rx="8" fill="#0A0A0A"/>
<path fill-rule="evenodd" clip-rule="evenodd" d="M6.81507 7.08697C6.42251 7.12893 6.07955 7.176 6.05289 7.19154C5.97699 7.23582 5.9854 18.3984 6.06135 18.458C6.0927 18.4825 6.58969 18.6008 7.16581 18.7209C8.02187 18.8993 8.29298 18.9392 8.64895 18.9392C9.0112 18.9392 9.09707 18.9262 9.15895 18.8616C9.22607 18.7916 9.23453 18.4889 9.24564 15.7657L9.25792 12.7474L9.3856 12.6438C9.545 12.5144 9.73043 12.5115 9.89802 12.636C9.969 12.6887 10.6305 13.2496 11.3681 13.8824C12.1056 14.5153 12.7555 15.0442 12.8125 15.0576C12.8694 15.0711 13.1065 15.042 13.3394 14.993C14.0241 14.8488 14.3187 14.817 14.9686 14.8168C15.5761 14.8167 16.1707 14.884 16.7271 15.0159C16.8848 15.0533 17.0669 15.0713 17.1317 15.056C17.1964 15.0406 17.499 14.8134 17.804 14.5511C18.4144 14.0261 18.537 13.9207 19.2692 13.2917C19.5443 13.0555 19.7795 12.8525 19.792 12.8407C20.1415 12.5097 20.3533 12.462 20.569 12.6657L20.702 12.7912V18.8055L20.8032 18.8724C20.9868 18.9937 21.6491 18.9609 22.4434 18.791C22.8246 18.7095 23.3003 18.6116 23.5005 18.5736C23.7106 18.5336 23.8886 18.4748 23.9214 18.4344C24.0071 18.3291 24.0045 7.35083 23.9188 7.2402C23.87 7.17724 23.7075 7.14825 23.0202 7.07984C22.5588 7.03393 22.0761 7.00202 21.9476 7.00889L21.714 7.02147L19.2913 9.1044C15.9468 11.9798 16.145 11.8167 16.0379 11.7813C15.9879 11.7648 15.4519 11.7498 14.8467 11.7481C13.8003 11.745 13.7413 11.7405 13.6409 11.6558C13.392 11.446 11.8464 10.1211 10.7342 9.16431C10.0724 8.59492 9.23408 7.87504 8.87123 7.56454L8.21148 7L7.87016 7.00533C7.68241 7.00829 7.20763 7.04501 6.81507 7.08697Z" fill="#FAFAFA"/>
<path d="M15.234 20.1822C15.1299 20.3529 14.8697 20.3529 14.7656 20.1822L14.3752 19.5423C14.2712 19.3717 14.4013 19.1584 14.6095 19.1584H15.3902C15.5983 19.1584 15.7285 19.3717 15.6244 19.5423L15.234 20.1822Z" fill="#FAFAFA"/>
<path d="M6 19.9263C6 19.7614 6.14126 19.6277 6.31551 19.6277H10.6426C10.8168 19.6277 10.9581 19.7614 10.9581 19.9263C10.9581 20.0912 10.8168 20.2249 10.6426 20.2249H6.31551C6.14126 20.2249 6 20.0912 6 19.9263Z" fill="#FAFAFA"/>
<path d="M6.24075 22.8012C6.18247 22.6457 6.26835 22.475 6.43256 22.4199L10.5104 21.05C10.6746 20.9949 10.855 21.0761 10.9133 21.2316C10.9716 21.387 10.8857 21.5577 10.7215 21.6129L6.64363 22.9827C6.47941 23.0379 6.29904 22.9566 6.24075 22.8012Z" fill="#FAFAFA"/>
<path d="M24 19.9263C24 19.7614 23.8587 19.6277 23.6845 19.6277H19.3574C19.1832 19.6277 19.0419 19.7614 19.0419 19.9263C19.0419 20.0912 19.1832 20.2249 19.3574 20.2249H23.6845C23.8587 20.2249 24 20.0912 24 19.9263Z" fill="#FAFAFA"/>
<path d="M23.7592 22.8012C23.8175 22.6457 23.7317 22.475 23.5674 22.4199L19.4896 21.05C19.3254 20.9949 19.145 21.0761 19.0867 21.2316C19.0284 21.387 19.1143 21.5577 19.2785 21.6129L23.3564 22.9827C23.5206 23.0379 23.701 22.9566 23.7592 22.8012Z" fill="#FAFAFA"/>
</svg>
