<svg width="35" height="35" viewBox="0 0 35 35" fill="none" xmlns="http://www.w3.org/2000/svg">
<path d="M17.5 32.5C16.7689 32.5 16.0515 32.3038 15.4249 31.9324L5.96994 26.3408C5.36811 25.9857 4.86824 25.4813 4.52293 24.8797C4.18584 24.2797 4.00496 23.605 4.00003 22.9191V11.4619C3.99736 10.7693 4.17759 10.0879 4.52299 9.48479C4.8684 8.88169 5.36707 8.37768 5.96994 8.02235L15.4249 3.05191C16.055 2.69043 16.771 2.5 17.5 2.5C18.229 2.5 18.945 2.69043 19.5751 3.05191L29.0301 8.02235C29.6332 8.37782 30.132 8.88209 30.4774 9.48549C30.8228 10.0889 31.0029 10.7706 31 11.4635V22.9175C30.995 23.605 30.8142 24.2797 30.4771 24.8797C30.1318 25.4813 29.6319 25.9857 29.0301 26.3408L19.5751 31.9324C18.9485 32.3038 18.2311 32.5 17.5 32.5ZM17.5 32.5V17.1913M30.459 9.51754L17.5 17.1913M17.5 17.1913L4.541 9.51778M24.7022 19.0143V12.9249L11.0312 5.37278" stroke="#FAFAFA" stroke-width="3" stroke-linecap="round" stroke-linejoin="round"/>
</svg>
