<svg width="30" height="30" viewBox="0 0 30 30" fill="none" xmlns="http://www.w3.org/2000/svg">
<rect width="30" height="30" rx="8" fill="#0A0A0A"/>
<path d="M15 25C14.5193 25 14.0477 24.8692 13.6356 24.6216L7.4192 20.8939C7.02351 20.6571 6.69485 20.3209 6.46782 19.9198C6.24619 19.5198 6.12726 19.07 6.12402 18.6127V10.9746C6.12226 10.5129 6.24076 10.0586 6.46786 9.65653C6.69496 9.25446 7.02282 8.91845 7.4192 8.68157L13.6356 5.36794C14.0499 5.12695 14.5207 5 15 5C15.4793 5 15.9501 5.12695 16.3644 5.36794L22.5808 8.68157C22.9773 8.91855 23.3053 9.25473 23.5324 9.657C23.7595 10.0593 23.8779 10.5138 23.876 10.9757V18.6116C23.8727 19.07 23.7538 19.5198 23.5322 19.9198C23.3051 20.3209 22.9765 20.6571 22.5808 20.8939L16.3644 24.6216C15.9523 24.8692 15.4807 25 15 25ZM15 25V14.7942M23.5203 9.67836L15 14.7942M15 14.7942L6.4797 9.67852M19.7353 16.0096V11.95L10.7469 6.91518" stroke="#FAFAFA" stroke-linecap="round" stroke-linejoin="round"/>
</svg>
