<svg width="50" height="50" viewBox="0 0 50 50" fill="none" xmlns="http://www.w3.org/2000/svg">
<g clip-path="url(#clip0_1031_2)">
<path d="M40 0H10C4.47715 0 0 4.47715 0 10V40C0 45.5228 4.47715 50 10 50H40C45.5228 50 50 45.5228 50 40V10C50 4.47715 45.5228 0 40 0Z" fill="#FAFAFA"/>
<path fill-rule="evenodd" clip-rule="evenodd" d="M36.843 24.8703C36.8466 24.7442 36.875 24.6239 36.875 24.4979C36.875 17.5939 31.3362 12 24.5 12C17.6638 12 12.125 17.5939 12.125 24.4979C12.125 24.6239 12.1534 24.7442 12.157 24.8703C9.7423 25.7227 8 28.0192 8 30.7469C8 34.1968 10.7694 36.9958 14.1875 36.9958V37H34.8125V36.9958C38.2285 36.9958 41 34.1989 41 30.7469C41 28.0171 39.2556 25.7227 36.843 24.8703Z" fill="black"/>
</g>
<defs>
<clipPath id="clip0_1031_2">
<rect width="50" height="50" fill="white"/>
</clipPath>
</defs>
</svg>
