<svg width="50" height="50" viewBox="0 0 50 50" fill="none" xmlns="http://www.w3.org/2000/svg">
<rect width="50" height="50" rx="10" fill="#FAFAFA"/>
<path d="M29.4987 16.3108C26.7225 15.2826 23.9464 15.1798 20.5533 16.3108C16.8518 14.2545 14.3841 9.52474 12.2248 10.0388C10.0656 10.5528 10.6825 18.8813 10.6825 24.4336C9.44866 26.0788 8.98126 28.1538 9.3464 30.0888C12.0197 42.9414 36.9029 43.6612 40.6039 30.0888C41.2488 27.7239 39.8841 25.0506 39.3695 24.4336C39.3695 18.7785 39.9864 10.1554 37.93 10.0388C35.1539 9.88123 32.8918 14.3572 29.4987 16.3108Z" stroke="#0A0A0A" stroke-width="2"/>
<path d="M27.2369 31.8797C27.2368 31.057 22.4043 31.0519 22.4043 31.8797C22.4043 33.1134 24.7691 34.2445 24.7691 34.2445C24.7691 34.2445 27.237 33.1602 27.2369 31.8797Z" fill="#0A0A0A"/>
<path d="M19.6282 25.4016C18.7028 24.6819 16.2737 24.065 15.3097 25.6074C14.4531 26.9779 15.5508 28.6113 16.9549 29.4117C18.359 30.212 21.2733 29.7201 21.2733 28.4863C21.2733 27.2525 20.5536 26.1213 19.6282 25.4016Z" fill="#0A0A0A"/>
<path d="M30.1159 25.3313C31.0413 24.6116 33.4704 23.9947 34.4344 25.5371C35.291 26.9076 34.1933 28.541 32.7893 29.3413C31.3852 30.1417 28.4709 29.6497 28.4709 28.416C28.4709 27.1822 29.1905 26.051 30.1159 25.3313Z" fill="#0A0A0A"/>
</svg>
