<svg width="50" height="50" viewBox="0 0 50 50" fill="none" xmlns="http://www.w3.org/2000/svg">
<rect width="50" height="50" rx="10" fill="#FAFAFA"/>
<path d="M16.604 10L17.3643 9.35043C17.1286 9.07453 16.7619 8.94798 16.4062 9.01976C16.0505 9.09154 15.7616 9.3504 15.6513 9.69612L16.604 10ZM33.2609 10L34.2183 9.71121C34.1101 9.35236 33.8102 9.08418 33.4416 9.01646C33.0729 8.94874 32.6974 9.09285 32.4687 9.3898L33.2609 10ZM37.4753 38.5906L37.6929 39.5666L38.4513 39.3975L38.4748 38.6208L37.4753 38.5906ZM12.5902 38.5906L11.592 38.65L11.6263 39.2258L12.1419 39.4844L12.5902 38.5906ZM25.0328 13.4228L25.0133 14.4226L25.0328 13.4228ZM20.2163 14.2282L19.456 14.8778C19.7111 15.1763 20.1173 15.2979 20.4945 15.1887L20.2163 14.2282ZM29.8493 14.4295L29.5318 15.3778C29.936 15.5131 30.3814 15.3774 30.6415 15.0397L29.8493 14.4295ZM20.8296 27.2906C21.3719 27.3952 21.8963 27.0405 22.0009 26.4982C22.1056 25.9559 21.7508 25.4315 21.2085 25.3268L21.019 26.3087L20.8296 27.2906ZM15.9907 24.3201C15.4484 24.2155 14.924 24.5703 14.8193 25.1126C14.7147 25.6549 15.0695 26.1793 15.6118 26.2839L15.8012 25.302L15.9907 24.3201ZM28.857 25.3268C28.3147 25.4315 27.9599 25.9559 28.0646 26.4982C28.1692 27.0405 28.6936 27.3952 29.2359 27.2906L29.0465 26.3087L28.857 25.3268ZM34.4537 26.2839C34.996 26.1793 35.3508 25.6549 35.2462 25.1126C35.1416 24.5703 34.6171 24.2155 34.0749 24.3201L34.2643 25.302L34.4537 26.2839ZM21.019 29.1208C21.5713 29.1208 22.019 28.6731 22.019 28.1208C22.019 27.5685 21.5713 27.1208 21.019 27.1208V28.1208V29.1208ZM15.8012 27.1208C15.2489 27.1208 14.8012 27.5685 14.8012 28.1208C14.8012 28.6731 15.2489 29.1208 15.8012 29.1208V28.1208V27.1208ZM29.0465 27.1208C28.4942 27.1208 28.0465 27.5685 28.0465 28.1208C28.0465 28.6731 28.4942 29.1208 29.0465 29.1208V28.1208V27.1208ZM34.2643 29.1208C34.8166 29.1208 35.2643 28.6731 35.2643 28.1208C35.2643 27.5685 34.8166 27.1208 34.2643 27.1208V28.1208V29.1208ZM21.2446 30.7058C21.7827 30.5812 22.1178 30.044 21.9933 29.506C21.8687 28.9679 21.3315 28.6327 20.7935 28.7573L21.019 29.7315L21.2446 30.7058ZM15.5757 29.9654C15.0376 30.0899 14.7024 30.6271 14.827 31.1652C14.9516 31.7032 15.4887 32.0384 16.0268 31.9138L15.8012 30.9396L15.5757 29.9654ZM29.272 28.7573C28.734 28.6327 28.1968 28.9679 28.0722 29.506C27.9477 30.044 28.2829 30.5812 28.8209 30.7058L29.0465 29.7315L29.272 28.7573ZM34.0387 31.9138C34.5768 32.0384 35.114 31.7032 35.2385 31.1652C35.3631 30.6271 35.0279 30.0899 34.4899 29.9654L34.2643 30.9396L34.0387 31.9138ZM25.7463 24.5973V23.5973V24.5973ZM26.0842 25.2174L25.2417 24.6787L25.2417 24.6787L26.0842 25.2174ZM23.4012 25.2174L24.2437 24.6787H24.2437L23.4012 25.2174ZM23.739 24.5973V25.5973V24.5973ZM24.4049 26.7871L23.5624 27.3258V27.3258L24.4049 26.7871ZM25.0805 26.7871L25.923 27.3258V27.3258L25.0805 26.7871ZM19.0122 22.0872C18.4599 22.0872 18.0122 22.535 18.0122 23.0872C18.0122 23.6395 18.4599 24.0872 19.0122 24.0872V23.0872V22.0872ZM21.8218 24.0872C22.3741 24.0872 22.8218 23.6395 22.8218 23.0872C22.8218 22.535 22.3741 22.0872 21.8218 22.0872V23.0872V24.0872ZM27.7521 22.0872C27.1998 22.0872 26.7521 22.535 26.7521 23.0872C26.7521 23.6395 27.1998 24.0872 27.7521 24.0872V23.0872V22.0872ZM30.5617 24.0872C31.114 24.0872 31.5617 23.6395 31.5617 23.0872C31.5617 22.535 31.114 22.0872 30.5617 22.0872V23.0872V24.0872ZM33.2609 10C32.3035 10.2888 32.3035 10.2887 32.3035 10.2887C32.3035 10.2888 32.3035 10.2888 32.3036 10.289C32.3037 10.2893 32.3038 10.2898 32.3041 10.2906C32.3045 10.2921 32.3053 10.2946 32.3063 10.2979C32.3083 10.3047 32.3114 10.3151 32.3155 10.3291C32.3239 10.357 32.3364 10.3994 32.3528 10.4557C32.3857 10.5681 32.4342 10.736 32.4961 10.9551C32.6197 11.3933 32.7966 12.0362 33.0079 12.8499C33.4307 14.4778 33.9907 16.7875 34.5382 19.5093C35.6357 24.9645 36.6731 32.0267 36.4757 38.5604L37.4753 38.5906L38.4748 38.6208C38.6788 31.866 37.609 24.6329 36.499 19.1149C35.9428 16.3501 35.3739 14.0037 34.9437 12.3472C34.7286 11.5188 34.548 10.8623 34.4209 10.4118C34.3573 10.1865 34.307 10.0127 34.2725 9.89453C34.2552 9.83544 34.2419 9.79027 34.2327 9.75954C34.2282 9.74418 34.2247 9.73242 34.2222 9.72435C34.221 9.72031 34.2201 9.71719 34.2194 9.715C34.2191 9.7139 34.2189 9.71304 34.2187 9.71241C34.2186 9.71209 34.2185 9.71179 34.2184 9.71163C34.2184 9.71139 34.2183 9.71121 33.2609 10ZM12.5902 38.5906L13.5885 38.5312C13.1945 31.91 14.1801 24.8586 15.2763 19.4347C15.8232 16.7287 16.3949 14.4408 16.8294 12.8308C17.0466 12.0261 17.2294 11.3914 17.3574 10.9593C17.4214 10.7432 17.4717 10.5778 17.5058 10.4672C17.5228 10.412 17.5358 10.3703 17.5444 10.3429C17.5487 10.3292 17.5519 10.3191 17.554 10.3126C17.555 10.3093 17.5557 10.3069 17.5562 10.3055C17.5564 10.3048 17.5566 10.3043 17.5567 10.304C17.5567 10.3039 17.5567 10.3038 17.5568 10.3038C17.5567 10.3038 17.5567 10.3039 16.604 10C15.6513 9.69612 15.6512 9.69632 15.6511 9.69658C15.6511 9.69675 15.651 9.69706 15.6509 9.69739C15.6507 9.69804 15.6504 9.69892 15.65 9.70003C15.6493 9.70225 15.6484 9.70538 15.6471 9.70943C15.6445 9.71751 15.6408 9.72923 15.636 9.74451C15.6264 9.77508 15.6125 9.81992 15.5944 9.87851C15.5583 9.9957 15.5059 10.1679 15.4398 10.3911C15.3076 10.8375 15.1203 11.4879 14.8985 12.3097C14.455 13.9527 13.8728 16.283 13.3159 19.0385C12.2045 24.5374 11.1833 31.7812 11.592 38.65L12.5902 38.5906ZM37.4753 38.5906L37.2577 37.6146C31.9088 38.8071 29.9737 39 25.0328 39V40V41C30.1236 41 32.2047 40.7902 37.6929 39.5666L37.4753 38.5906ZM25.0328 40V39C22.5476 39 19.974 38.9001 17.7841 38.6779C15.5421 38.4505 13.8579 38.1078 13.0386 37.6968L12.5902 38.5906L12.1419 39.4844C13.3294 40.0802 15.3586 40.4421 17.5822 40.6677C19.8579 40.8986 22.5021 41 25.0328 41V40ZM16.604 10L15.8437 10.6496L19.456 14.8778L20.2163 14.2282L20.9767 13.5786L17.3643 9.35043L16.604 10ZM20.2163 14.2282C20.4945 15.1887 20.4944 15.1888 20.4943 15.1888C20.4943 15.1888 20.4942 15.1888 20.4942 15.1888C20.4942 15.1888 20.4942 15.1888 20.4943 15.1888C20.4944 15.1888 20.4947 15.1887 20.4952 15.1885C20.4961 15.1883 20.4977 15.1878 20.5 15.1871C20.5046 15.1858 20.5119 15.1838 20.5217 15.181C20.5415 15.1754 20.5715 15.167 20.6109 15.1561C20.6897 15.1344 20.8058 15.1029 20.9516 15.0652C21.2437 14.9895 21.6526 14.8889 22.1182 14.7896C23.071 14.5864 24.1812 14.4064 25.0133 14.4226L25.0328 13.4228L25.0523 12.423C23.9779 12.4021 22.6798 12.6248 21.701 12.8336C21.2009 12.9402 20.7631 13.048 20.45 13.1291C20.2932 13.1697 20.1671 13.2038 20.0793 13.228C20.0354 13.2401 20.0011 13.2498 19.9773 13.2565C19.9653 13.2599 19.9561 13.2625 19.9495 13.2644C19.9462 13.2653 19.9437 13.2661 19.9418 13.2666C19.9408 13.2669 19.9401 13.2671 19.9395 13.2673C19.9392 13.2674 19.9389 13.2674 19.9387 13.2675C19.9386 13.2675 19.9385 13.2676 19.9384 13.2676C19.9383 13.2676 19.9382 13.2676 20.2163 14.2282ZM25.0328 13.4228L25.0133 14.4226C25.8517 14.439 26.9621 14.6652 27.9132 14.9089C28.3779 15.028 28.7855 15.1462 29.0765 15.2344C29.2218 15.2785 29.3374 15.3149 29.4159 15.3401C29.4551 15.3527 29.485 15.3624 29.5047 15.3688C29.5145 15.3721 29.5217 15.3745 29.5263 15.376C29.5286 15.3767 29.5302 15.3773 29.5311 15.3776C29.5316 15.3777 29.5319 15.3778 29.532 15.3779C29.532 15.3779 29.5321 15.3779 29.532 15.3779C29.532 15.3779 29.532 15.3779 29.532 15.3779C29.5319 15.3778 29.5318 15.3778 29.8493 14.4295C30.1667 13.4813 30.1666 13.4812 30.1665 13.4812C30.1664 13.4812 30.1663 13.4811 30.1662 13.4811C30.166 13.481 30.1658 13.4809 30.1655 13.4808C30.1649 13.4806 30.1641 13.4804 30.1632 13.4801C30.1613 13.4795 30.1587 13.4786 30.1555 13.4775C30.149 13.4754 30.1397 13.4723 30.1279 13.4684C30.1042 13.4607 30.07 13.4495 30.0263 13.4355C29.9389 13.4075 29.8133 13.3679 29.6571 13.3206C29.3452 13.2259 28.9088 13.0994 28.4096 12.9715C27.4327 12.7212 26.1348 12.4441 25.0523 12.423L25.0328 13.4228ZM29.8493 14.4295L30.6415 15.0397L34.0532 10.6102L33.2609 10L32.4687 9.3898L29.057 13.8193L29.8493 14.4295ZM21.019 26.3087L21.2085 25.3268L15.9907 24.3201L15.8012 25.302L15.6118 26.2839L20.8296 27.2906L21.019 26.3087ZM29.0465 26.3087L29.2359 27.2906L34.4537 26.2839L34.2643 25.302L34.0749 24.3201L28.857 25.3268L29.0465 26.3087ZM21.019 28.1208V27.1208H15.8012V28.1208V29.1208H21.019V28.1208ZM29.0465 28.1208V29.1208H34.2643V28.1208V27.1208H29.0465V28.1208ZM21.019 29.7315L20.7935 28.7573L15.5757 29.9654L15.8012 30.9396L16.0268 31.9138L21.2446 30.7058L21.019 29.7315ZM29.0465 29.7315L28.8209 30.7058L34.0387 31.9138L34.2643 30.9396L34.4899 29.9654L29.272 28.7573L29.0465 29.7315ZM24.4049 26.7871L25.2474 26.2484L24.2437 24.6787L23.4012 25.2174L22.5587 25.7561L23.5624 27.3258L24.4049 26.7871ZM23.739 24.5973V25.5973H25.7463V24.5973V23.5973H23.739V24.5973ZM26.0842 25.2174L25.2417 24.6787L24.238 26.2484L25.0805 26.7871L25.923 27.3258L26.9267 25.7561L26.0842 25.2174ZM25.7463 24.5973V25.5973C25.2678 25.5973 24.9906 25.0714 25.2417 24.6787L26.0842 25.2174L26.9267 25.7561C27.5205 24.8274 26.8597 23.5973 25.7463 23.5973V24.5973ZM23.4012 25.2174L24.2437 24.6787C24.4948 25.0714 24.2176 25.5973 23.739 25.5973V24.5973V23.5973C22.6257 23.5973 21.9649 24.8274 22.5587 25.7561L23.4012 25.2174ZM24.4049 26.7871L23.5624 27.3258C24.1136 28.1879 25.3718 28.1879 25.923 27.3258L25.0805 26.7871L24.238 26.2484C24.4734 25.8803 25.012 25.8803 25.2474 26.2484L24.4049 26.7871ZM19.0122 23.0872V24.0872H21.8218V23.0872V22.0872H19.0122V23.0872ZM27.7521 23.0872V24.0872H30.5617V23.0872V22.0872H27.7521V23.0872Z" fill="#0A0A0A"/>
</svg>
