<svg width="50" height="50" viewBox="0 0 50 50" fill="none" xmlns="http://www.w3.org/2000/svg">
<rect width="50" height="50" rx="10" fill="#FAFAFA"/>
<path fill-rule="evenodd" clip-rule="evenodd" d="M12.2679 12.1413C11.6572 12.2095 11.1237 12.286 11.0823 12.3113C10.9642 12.3832 10.9773 30.5225 11.0954 30.6192C11.1442 30.659 11.9173 30.8513 12.8135 31.0464C14.1451 31.3364 14.5669 31.4012 15.1206 31.4012C15.6841 31.4012 15.8177 31.38 15.9139 31.2751C16.0183 31.1614 16.0315 30.6694 16.0488 26.2443L16.0679 21.3395L16.2665 21.1711C16.5144 20.9609 16.8029 20.9563 17.0636 21.1584C17.174 21.2441 18.203 22.1556 19.3503 23.184C20.4976 24.2124 21.5086 25.0718 21.5972 25.0936C21.6857 25.1155 22.0545 25.0683 22.4168 24.9886C23.4819 24.7544 23.9402 24.7026 24.9512 24.7024C25.8961 24.7021 26.8211 24.8115 27.6867 25.0258C27.932 25.0866 28.2151 25.1159 28.3159 25.091C28.4166 25.066 28.8873 24.6969 29.3618 24.2705C30.3112 23.4174 30.5021 23.2461 31.641 22.224C32.0688 21.8402 32.4347 21.5104 32.4542 21.4911C32.9979 20.9533 33.3273 20.8758 33.6629 21.2067L33.8698 21.4107V31.184L34.0272 31.2926C34.3127 31.4898 35.3431 31.4364 36.5786 31.1604C37.1716 31.0279 37.9116 30.8689 38.223 30.8071C38.5499 30.7422 38.8266 30.6465 38.8778 30.5809C39.011 30.4098 39.0069 12.5701 38.8736 12.3903C38.7978 12.288 38.5451 12.2409 37.4759 12.1297C36.7581 12.0551 36.0073 12.0033 35.8074 12.0144L35.4441 12.0349L31.6754 15.4196C26.4728 20.0922 26.7811 19.8271 26.6146 19.7696C26.5367 19.7428 25.7029 19.7185 24.7615 19.7156C23.1338 19.7107 23.0421 19.7033 22.8858 19.5657C22.4987 19.2247 20.0944 17.0718 18.3644 15.517C17.3349 14.5917 16.0308 13.4219 15.4664 12.9174L14.4401 12L13.9091 12.0087C13.6171 12.0135 12.8785 12.0731 12.2679 12.1413Z" fill="#0A0A0A"/>
<path d="M25.364 33.4212C25.2021 33.6984 24.7973 33.6984 24.6354 33.4212L24.0282 32.3813C23.8662 32.104 24.0686 31.7574 24.3925 31.7574H25.6069C25.9307 31.7574 26.1332 32.104 25.9712 32.3813L25.364 33.4212Z" fill="#0A0A0A"/>
<path d="M11 33.0052C11 32.7372 11.2197 32.5199 11.4908 32.5199H18.2218C18.4928 32.5199 18.7126 32.7372 18.7126 33.0052C18.7126 33.2732 18.4928 33.4905 18.2218 33.4905H11.4908C11.2197 33.4905 11 33.2732 11 33.0052Z" fill="#0A0A0A"/>
<path d="M11.3745 37.6769C11.2838 37.4243 11.4174 37.1469 11.6729 37.0573L18.0162 34.8313C18.2716 34.7417 18.5522 34.8737 18.6429 35.1263C18.7335 35.3789 18.6 35.6563 18.3445 35.7459L12.0012 37.9719C11.7457 38.0616 11.4652 37.9295 11.3745 37.6769Z" fill="#0A0A0A"/>
<path d="M39 33.0052C39 32.7372 38.7803 32.5199 38.5092 32.5199H31.7782C31.5072 32.5199 31.2874 32.7372 31.2874 33.0052C31.2874 33.2732 31.5072 33.4905 31.7782 33.4905H38.5092C38.7803 33.4905 39 33.2732 39 33.0052Z" fill="#0A0A0A"/>
<path d="M38.6255 37.6769C38.7162 37.4243 38.5826 37.1469 38.3271 37.0573L31.9838 34.8313C31.7284 34.7417 31.4478 34.8737 31.3571 35.1263C31.2665 35.3789 31.4 35.6563 31.6555 35.7459L37.9988 37.9719C38.2542 38.0616 38.5348 37.9295 38.6255 37.6769Z" fill="#0A0A0A"/>
</svg>
