<svg width="50" height="50" viewBox="0 0 50 50" fill="none" xmlns="http://www.w3.org/2000/svg">
<g clip-path="url(#clip0_106_4)">
<path d="M40 0H10C4.47715 0 0 4.47715 0 10V40C0 45.5228 4.47715 50 10 50H40C45.5228 50 50 45.5228 50 40V10C50 4.47715 45.5228 0 40 0Z" fill="#FAFAFA"/>
<path d="M25.14 8L40.6445 14.6508L35.6457 16.9384L20.0565 10.2028L25.14 8Z" fill="#0A0A0A"/>
<path d="M14.5918 12.5751L30.2234 19.4377L25.1823 21.7676L9.72021 14.6508L14.5918 12.5751Z" fill="#0A0A0A"/>
<path d="M9 15.9217L24.4198 23.0809V41L9 33.8408V15.9217Z" fill="#0A0A0A"/>
<path d="M31.1554 26.4275L36.4082 24.0128V18.2092L41.3222 15.9217V33.8832L25.9025 41V23.0809L31.1554 20.6239V26.4275Z" fill="#0A0A0A"/>
</g>
<defs>
<clipPath id="clip0_106_4">
<rect width="50" height="50" fill="white"/>
</clipPath>
</defs>
</svg>
