<svg width="50" height="50" viewBox="0 0 50 50" fill="none" xmlns="http://www.w3.org/2000/svg">
<rect width="50" height="50" rx="10" fill="#FAFAFA"/>
<path fill-rule="evenodd" clip-rule="evenodd" d="M21.9772 13.09C19.8299 13.3947 16.5797 14.4348 16.1719 14.9478L16.0042 15.1587V16.481C16.0042 17.2082 16.0287 17.8032 16.0586 17.8032C16.0886 17.8032 16.5545 17.5421 17.0941 17.2229C18.2933 16.5135 18.823 16.2773 19.726 16.0492C24.6413 14.8074 30.458 16.5173 33.286 20.0354L33.7738 20.6422L33.8227 20.4497C33.8495 20.3438 33.86 19.3699 33.846 18.2854L33.8205 16.3136L33.5678 16.0471C33.2087 15.6682 31.9309 14.8491 31.0406 14.4271C29.9884 13.9283 28.708 13.5026 27.5085 13.2525L26.4918 13.0407L24.6386 13.008C23.3504 12.9853 22.5389 13.0103 21.9772 13.09ZM13.157 17.0726C11.3842 18.8305 10.4005 21.2276 10.0998 24.5227L10 25.6165L10.1009 26.6897C10.319 29.0099 10.9402 30.8633 12.05 32.5049C12.5081 33.1825 13.6328 34.3889 13.8066 34.3889H13.9096L13.8829 32.4915L13.8561 30.5942L13.3297 29.5536C12.9997 28.9012 12.7205 28.2022 12.5815 27.6796L12.3596 26.8462L12.3576 25.596L12.3555 24.3458L12.4969 23.7278C12.7178 22.7619 13.0888 21.7449 13.511 20.9475L13.8983 20.2162L13.8924 18.4888C13.8891 17.5387 13.8599 16.695 13.8274 16.6138L13.7685 16.4662L13.157 17.0726ZM35.9848 21.5605L36.0107 24.6792L36.4099 25.7035C36.6295 26.2669 36.8884 27.1108 36.9853 27.5788L37.1615 28.4297L37.1687 29.7215L37.1759 31.0134L36.9946 31.5551C36.895 31.8531 36.7466 32.1939 36.6648 32.3125C36.583 32.4311 36.3929 32.7104 36.2423 32.9331L35.9685 33.338V34.9469V36.5558L36.1159 36.5548C36.3946 36.553 37.1063 36.3305 37.5543 36.1054C38.804 35.4773 39.6839 33.7736 39.9345 31.4971C40.0698 30.2683 39.9871 27.9531 39.7633 26.7029C39.4471 24.9373 38.8847 23.2322 38.1266 21.7415C37.456 20.4228 36.4524 18.8469 36.0978 18.5557L35.959 18.4417L35.9848 21.5605ZM21.1359 21.1331C18.939 21.5281 17.673 22.3539 16.8781 23.9102C16.2513 25.1375 16.0616 26.9637 16.4191 28.3297C16.9009 30.1713 18.0646 31.2986 20.0003 31.799C21.5353 32.1958 23.4834 31.8533 24.4151 31.023C25.0434 30.4629 25.2661 29.0078 24.9755 27.3595C24.6821 25.695 23.9097 24.8402 22.4409 24.5543L21.9359 24.456L21.4595 24.5431C20.2157 24.7706 19.383 25.633 19.345 26.7331L19.3316 27.12L19.4921 27.2956C19.8352 27.6711 20.2008 27.4857 20.7638 26.651C21.4422 25.6451 22.1823 25.5369 22.8946 26.3396C23.3031 26.7998 23.4369 27.4763 23.2358 28.0631C23.0779 28.5233 22.597 29.1836 22.2424 29.4267L21.9124 29.653L21.4014 29.6988L20.8905 29.7446L20.3493 29.4811C19.7316 29.1802 19.0812 28.5331 18.772 27.9118L18.5735 27.5129V26.7628V26.0127L18.8058 25.522C19.2378 24.6093 20.4531 23.6387 21.5639 23.319C22.5245 23.0425 23.385 23.1411 24.428 23.6469L25.144 23.9942L25.8615 24.7117C26.6304 25.4805 27.0695 26.1871 27.3434 27.0962C27.5434 27.76 27.5429 29.0681 27.3423 29.8049C26.7013 32.1596 24.4045 34.2451 21.9234 34.7251C21.251 34.8552 19.6834 34.7867 18.9525 34.5953C18.2514 34.4118 17.3401 33.9993 16.71 33.5802C16.4376 33.3992 16.1675 33.2235 16.1095 33.1899L16.0042 33.1288V34.432V35.7352L16.2416 35.9701C16.3998 36.1266 16.7449 36.2892 17.2765 36.4576C18.5872 36.873 19.4424 37.0045 20.8058 36.9999L22.0272 36.9958L22.9741 36.7805C26.6016 35.956 29.0585 33.5602 29.7431 30.1799C29.8902 29.4538 29.8926 27.5232 29.7472 26.8462C29.3733 25.1042 28.6671 23.8167 27.4756 22.7045C26.7872 22.0621 25.8449 21.5645 24.807 21.2955L24.1331 21.1209L22.8275 21.0923C22.1093 21.0766 21.3482 21.095 21.1359 21.1331ZM30.3567 33.8189C30.2586 33.866 30.0935 34.0536 29.99 34.2358L29.8018 34.5671L29.832 35.2224L29.8621 35.8778L30.0361 36.1126C30.1319 36.2418 30.3402 36.4131 30.4991 36.4931L30.7879 36.6389L32.1357 36.6379C32.877 36.6373 33.5688 36.6142 33.6731 36.5867L33.8626 36.5364V35.1292V33.7221L32.1989 33.7278C31.2457 33.7309 30.459 33.7699 30.3567 33.8189Z" fill="#0A0A0A"/>
</svg>
