<svg width="50" height="50" viewBox="0 0 50 50" fill="none" xmlns="http://www.w3.org/2000/svg">
<rect width="50" height="50" rx="10" fill="#FAFAFA"/>
<path fill-rule="evenodd" clip-rule="evenodd" d="M34.2625 14.7406C32.706 15.698 31.3716 16.548 31.2973 16.6295L31.1622 16.7778L31.1453 18.1804C31.1264 19.7519 31.1505 19.8937 31.4697 20.0932C31.6434 20.2018 31.7349 20.2051 34.5676 20.205C37.7804 20.2048 37.6125 20.2221 37.8879 19.863C37.9983 19.7191 38 19.6698 38 16.5925V13.4681L37.8406 13.2892C37.6642 13.0911 37.4767 13 37.2455 13C37.141 13 36.1965 13.5512 34.2625 14.7406ZM24.6704 20.3614C22.4988 21.7005 21.7816 22.1692 21.6892 22.3096L21.5676 22.4945V27.0231V31.5517L21.4443 31.7393C21.2483 32.0375 21.1439 32.0652 20.2162 32.066C19.4704 32.0665 19.3588 32.0543 19.1995 31.9547C18.8619 31.7437 18.8649 31.7749 18.8645 28.4244C18.8642 25.5163 18.8597 25.3811 18.7597 25.2254C18.5205 24.8534 18.1542 24.8194 17.6268 25.1202C17.4307 25.232 16.4797 25.8149 15.5135 26.4155C14.5473 27.0162 13.4873 27.6713 13.158 27.8714C12.8287 28.0715 12.4335 28.3371 12.2796 28.4618L12 28.6885L12.0028 32.3038C12.0043 34.2922 12.0242 36.091 12.0469 36.3011C12.083 36.6346 12.1103 36.7032 12.2612 36.8415L12.4342 37H15.4396H18.4451L18.655 36.7848L18.8649 36.5696L18.865 35.3298C18.865 34.2605 18.8781 34.0634 18.9596 33.8961C19.119 33.5688 19.3152 33.5082 20.2162 33.5082C21.5381 33.5082 21.5674 33.5465 21.5675 35.2706C21.5676 36.5495 21.5875 36.6555 21.8711 36.8842C22.0126 36.9984 22.055 37 24.9559 37C28.2019 37 28.1135 37.0091 28.3265 36.6508C28.43 36.4769 28.4321 36.3048 28.4321 27.7991C28.4321 19.1963 28.4311 19.1232 28.3229 18.9412C28.2054 18.7434 27.9355 18.5981 27.6857 18.5981C27.5774 18.5981 26.6601 19.1346 24.6704 20.3614ZM31.687 21.5926C31.4819 21.6398 31.3186 21.7762 31.2107 21.9902C31.1047 22.2003 31.0985 36.3959 31.2043 36.6103C31.2415 36.6856 31.3542 36.8041 31.4547 36.8736L31.6376 37H34.5512C37.7379 37 37.6554 37.0081 37.8876 36.6736L38 36.5117V29.2564V22.0009L37.8155 21.8175C37.6763 21.6793 37.5731 21.6292 37.3965 21.6143C36.9045 21.5728 31.8563 21.5536 31.687 21.5926Z" fill="#0A0A0A"/>
</svg>
