<svg width="50" height="50" viewBox="0 0 50 50" fill="none" xmlns="http://www.w3.org/2000/svg">
<rect width="50" height="50" rx="10" fill="#FAFAFA"/>
<path d="M7.00977 26.8398C7.98753 30.8572 10.2797 34.4327 13.5221 36.9983C16.7646 39.5638 20.7713 40.9724 24.9059 41.0001C29.0405 41.0278 33.0658 39.6731 36.3423 37.1512C39.6189 34.6294 41.9588 31.0849 42.9903 27.081" stroke="#0A0A0A"/>
<path d="M14.6748 35.6099C17.9852 37.9443 21.4594 38.1384 24.521 35.7796C27.1099 33.7851 30.8446 32.5119 33.1364 36.204" stroke="#0A0A0A"/>
<path d="M13.6992 31.4722C17.0096 33.8066 20.4838 34.0007 23.5454 31.6419C26.1343 29.6474 29.8691 28.3742 32.1609 32.0663" stroke="#0A0A0A"/>
<path d="M24.393 40.6186C27.194 40.0244 27.5335 37.113 23.821 35.8363C20.5733 34.7195 20.7006 29.5846 24.3933 29.5847" stroke="#0A0A0A"/>
<path d="M17.6035 26.4855L24.3516 9L31.524 26.4855L24.3516 30.0929L17.6035 26.4855Z" fill="#0A0A0A"/>
</svg>
