<svg width="50" height="50" viewBox="0 0 50 50" fill="none" xmlns="http://www.w3.org/2000/svg">
<rect width="50" height="50" rx="10" fill="#FAFAFA"/>
<path d="M20.8381 31.0168C20.8381 31.0168 13.5172 31.0169 13.116 31.0168C12.7149 31.0167 7.5 31.0169 7.5 25.0998C7.5 19.1826 12.414 18.9824 13.116 18.9824C13.8181 18.9824 17.9298 18.9824 22.3424 18.9824C26.755 18.9824 26.9556 25.0999 26.9556 25.0999" stroke="#0A0A0A" stroke-width="2" stroke-linecap="round"/>
<path d="M29.1619 18.9832C29.1619 18.9832 36.4828 18.9831 36.884 18.9832C37.2851 18.9833 42.5 18.9831 42.5 24.9002C42.5 30.8174 37.586 31.0176 36.884 31.0176C36.1819 31.0176 32.0702 31.0176 27.6576 31.0176C23.245 31.0176 23.0444 24.9001 23.0444 24.9001" stroke="#0A0A0A" stroke-width="2" stroke-linecap="round"/>
<path d="M14.4199 24.8994H18.3311" stroke="#0A0A0A" stroke-width="2" stroke-linecap="round"/>
<path d="M31.6689 24.8994H35.5801" stroke="#0A0A0A" stroke-width="2" stroke-linecap="round"/>
</svg>
