<svg width="50" height="50" viewBox="0 0 50 50" fill="none" xmlns="http://www.w3.org/2000/svg">
<rect width="50" height="50" rx="10" fill="#FAFAFA"/>
<path fill-rule="evenodd" clip-rule="evenodd" d="M12.7431 14.7169C11.8236 14.8891 10.7148 15.3797 9.95745 15.9496C8.67003 16.9182 7.5 18.6489 7.5 19.5845C7.5 19.9873 7.77227 20.2348 8.21541 20.2348C8.39762 20.2348 8.40972 20.2427 8.37903 20.3414C8.36077 20.4001 8.33459 20.7892 8.32084 21.2063C8.29879 21.8726 8.30808 22.0162 8.39738 22.391C8.58585 23.182 9.05982 23.9882 9.66616 24.549C10.4112 25.238 11.2808 25.6176 12.3995 25.7419C12.8823 25.7955 12.9107 25.8046 12.8827 25.8956C12.8167 26.1107 12.7984 28.2477 12.8582 28.7546C13.0447 30.3349 13.6719 31.8452 14.7023 33.1954C15.235 33.8936 16.2705 34.8483 17.0799 35.3877C19.1914 36.7946 22.4797 37.5063 26.1031 37.3403C27.6523 37.2694 28.7129 37.1158 29.9085 36.7895C33.1013 35.9181 35.6682 33.619 36.6613 30.7411C37.0514 29.6106 37.1712 28.6713 37.1218 27.1298C37.1042 26.5824 37.0781 26.0579 37.0636 25.9641L37.0374 25.7936L37.433 25.7606C39.4705 25.591 41.0523 24.3548 41.563 22.5331C41.6875 22.089 41.7241 21.103 41.6346 20.6021L41.569 20.2348L41.7618 20.2347C42.1269 20.2346 42.5 19.9272 42.5 19.6266C42.5 19.2612 42.237 18.5599 41.8839 17.9839C40.2259 15.2785 36.9868 13.9731 34.4072 14.9705C33.9503 15.1472 33.4282 15.4534 32.8726 15.8706C32.3932 16.2306 31.3048 17.3131 31.0705 17.663C30.9559 17.8341 30.8825 17.9019 30.8333 17.882C29.8967 17.502 28.1425 17.0935 26.6599 16.91C26.0134 16.8301 23.95 16.8291 23.269 16.9084C21.9312 17.0643 20.7096 17.3303 19.6766 17.6905L19.072 17.9014L18.8497 17.5872C18.5629 17.182 17.6379 16.2583 17.1501 15.8901C16.4165 15.3364 15.7583 14.9836 15.0881 14.7846C14.6196 14.6455 13.324 14.6081 12.7431 14.7169ZM25.6533 25.1636C26.4339 25.4374 26.9354 26.0605 27.322 27.237C27.8629 28.8829 28.1067 30.93 27.8568 31.7264C27.7265 32.1415 27.5959 32.356 27.2785 32.6765C26.9744 32.9834 26.4975 33.2264 25.9722 33.3421C25.4863 33.4491 24.499 33.4518 24.0203 33.3474C22.6246 33.0432 21.9467 32.0933 22.0351 30.5654C22.1093 29.2837 22.5538 27.4118 23.0086 26.4663C23.3207 25.8174 23.8256 25.3502 24.4196 25.1604C24.7925 25.0413 25.3084 25.0427 25.6533 25.1636Z" stroke="#0A0A0A" stroke-width="2" stroke-linejoin="round"/>
<ellipse cx="18.75" cy="26.8408" rx="1.25" ry="1.25" fill="#0A0A0A"/>
<ellipse cx="31.4316" cy="26.8408" rx="1.25" ry="1.25" fill="#0A0A0A"/>
</svg>
