<svg width="50" height="50" viewBox="0 0 50 50" fill="none" xmlns="http://www.w3.org/2000/svg">
<rect width="50" height="50" rx="10" fill="#FAFAFA"/>
<path d="M12.6621 19.5071C12.6621 27.7889 24.1551 36.9157 25.0002 36.4086C25.8452 36.9157 37.3383 27.7889 37.3383 19.5071C37.3383 11.9014 32.4369 7 25.0002 7C17.5636 7 12.6621 11.9014 12.6621 19.5071Z" fill="#0A0A0A"/>
<path d="M25.6407 42.9996H24.0217C23.584 42.9996 23.1972 42.715 23.067 42.2972L22.5314 40.5788C22.3307 39.935 22.8118 39.2812 23.4861 39.2812H26.1763C26.8506 39.2812 27.3317 39.935 27.131 40.5788L26.5954 42.2972C26.4652 42.715 26.0784 42.9996 25.6407 42.9996Z" fill="#0A0A0A"/>
</svg>
