<svg width="50" height="50" viewBox="0 0 50 50" fill="none" xmlns="http://www.w3.org/2000/svg">
<rect width="50" height="50" rx="10" fill="#FAFAFA"/>
<path d="M35.2023 25.7102C35.5433 24.4776 35.8289 22.3597 35.5692 20.4673M33.6437 16.9248C34.8033 17.5802 35.3612 18.9514 35.5692 20.4673M32.085 22.1677C33.4453 22.9612 34.9746 21.3647 35.5692 20.4673" stroke="#0A0A0A" stroke-width="1.5"/>
<path d="M16.6396 13.8086C16.1201 12.5805 15.1943 9.5009 15.6477 7.00699C17.5748 6.89363 20.3237 8.18782 21.4573 8.84908M29.8175 10.9745H36.7608C36.3357 13.8086 33.36 18.0595 31.943 18.0595" stroke="#0A0A0A" stroke-width="1.5"/>
<path d="M12.5306 25.7119H27.2673M12.5306 25.7119L9.27148 33.222H12.4011M12.5306 25.7119L12.4011 33.222M26.8422 42.9992L12.2472 42.149L12.4011 33.222M26.8422 42.9992L27.2673 25.7119M26.8422 42.9992L38.1782 42.5741V32.9386M27.2673 25.7119H37.328L40.7288 32.9386H38.1782M27.2673 25.7119L29.6762 32.9386H38.1782" stroke="#0A0A0A" stroke-width="1.5"/>
<path d="M24.7166 8.42354C13.2389 7.99855 15.2227 25.7108 15.2227 25.7108L16.9231 25.711C16.9231 25.711 16.3731 21.4163 17.0648 19.6179C17.7565 17.8195 20.1822 16.2171 20.1822 16.2171C20.1822 16.2171 21.1419 20.4099 22.7328 21.0348C24.992 21.9222 27.2672 16.7838 27.2672 16.7838C27.2672 16.7838 28.4318 19.347 28.5425 21.0348C28.6531 22.7226 27.834 25.711 27.834 25.711H31.6598C31.6598 25.711 34.4938 8.78558 24.7166 8.42354Z" stroke="#0A0A0A" stroke-width="1.5"/>
<ellipse cx="19.206" cy="20.7553" rx="0.753966" ry="1.55869" transform="rotate(8.15204 19.206 20.7553)" fill="#0A0A0A"/>
<ellipse cx="26.3915" cy="21.8354" rx="0.753966" ry="1.55869" transform="rotate(8.15204 26.3915 21.8354)" fill="#0A0A0A"/>
</svg>
