<svg width="50" height="50" viewBox="0 0 50 50" fill="none" xmlns="http://www.w3.org/2000/svg">
<rect width="50" height="50" rx="10" fill="#FAFAFA"/>
<path d="M12.8845 38.2477C12.0196 37.3828 12.0196 35.9805 12.8845 35.1156L33.9554 14.0447C34.8203 13.1798 36.2226 13.1798 37.0875 14.0447C37.9524 14.9096 37.9524 16.3119 37.0875 17.1768L16.0166 38.2477C15.1517 39.1126 13.7494 39.1126 12.8845 38.2477Z" fill="#0A0A0A"/>
<path d="M10.6487 19.2088C9.78377 18.3439 9.78377 16.9416 10.6487 16.0767L14.9722 11.7532C15.8371 10.8883 17.2394 10.8883 18.1043 11.7532C18.9692 12.6181 18.9692 14.0204 18.1043 14.8853L13.7808 19.2088C12.9159 20.0737 11.5136 20.0737 10.6487 19.2088Z" fill="#0A0A0A"/>
<path d="M39.3513 19.2088C40.2162 18.3439 40.2162 16.9416 39.3513 16.0767L35.0278 11.7532C34.1629 10.8883 32.7606 10.8883 31.8957 11.7532C31.0308 12.6181 31.0308 14.0204 31.8957 14.8853L36.2192 19.2088C37.0841 20.0737 38.4864 20.0737 39.3513 19.2088Z" fill="#0A0A0A"/>
<path d="M37.0875 38.2477C37.9524 37.3828 37.9524 35.9805 37.0875 35.1156L16.0166 14.0447C15.1517 13.1798 13.7494 13.1798 12.8845 14.0447C12.0196 14.9096 12.0196 16.3119 12.8845 17.1768L33.9554 38.2477C34.8203 39.1126 36.2226 39.1126 37.0875 38.2477Z" fill="#0A0A0A"/>
<path d="M27.086 25.9859C27.086 27.2035 26.099 28.1905 24.8814 28.1905C23.6638 28.1905 22.6768 27.2035 22.6768 25.9859C22.6768 24.7683 23.6638 23.7812 24.8814 23.7812C26.099 23.7812 27.086 24.7683 27.086 25.9859Z" fill="#FAFAFA"/>
</svg>
