<svg width="50" height="50" viewBox="0 0 50 50" fill="none" xmlns="http://www.w3.org/2000/svg">
<rect width="50" height="50" rx="10" fill="#FAFAFA"/>
<path fill-rule="evenodd" clip-rule="evenodd" d="M13.5744 17.0281C19.9306 17.028 26.3674 16.2677 26.5285 22.6647C26.5285 28.7712 19.7705 28.0672 15.9889 28.0671V31.5899H27.4145L31.3561 26.7368L26.7705 20.7862H29.3449L32.7246 25.014L36.1029 20.7862H38.5174L34.0111 26.7368L37.8734 31.5899H39V33H36.2643L32.5633 28.3026L28.8623 33H11V31.5899H13.5744V17.0281ZM24.1961 22.509C24.1961 18.5163 19.8508 19.0634 15.9889 19.0635V26.0317C20.0116 25.9535 24.1958 26.6578 24.1961 22.509Z" fill="#0A0A0A"/>
</svg>
