<svg width="50" height="50" viewBox="0 0 50 50" fill="none" xmlns="http://www.w3.org/2000/svg">
<rect width="50" height="50" rx="10" fill="#FAFAFA"/>
<path d="M16.519 18.4845C20.3639 15.5401 19.5043 8.43845 25.5007 8.02291C33.2105 7.48864 31.627 16.4316 35.9102 20.9755C37.7728 22.9515 40.6866 20.2735 42.9969 24.2991C43.5516 25.2656 42.3157 25.9003 41.9326 26.9469C41.6858 27.6212 42.0469 28.5879 41.3356 28.6861C40.8008 28.7599 40.7312 27.8598 40.1934 27.9073C39.4708 27.9711 39.5785 28.8762 39.3627 29.5687C39.1434 30.2722 39.6046 30.8978 39.1031 31.4377C38.6755 31.8981 38.1616 31.7148 37.5715 31.9309C36.7954 32.2153 36.4479 32.8363 35.6246 32.7616C33.6258 33.2289 34.6642 30.1897 33.6258 30.9186C32.8696 31.2003 32.9645 32.0023 32.6913 32.7616C32.3217 33.7889 32.5443 34.4779 32.1981 35.5133C31.9248 36.3305 31.9241 36.9588 31.2636 37.5121C30.4392 38.2025 29.5223 37.469 28.5379 37.9015C27.6449 38.2938 27.4682 39.0648 26.565 39.433C25.6123 39.8215 24.9507 39.4839 23.9432 39.6926C22.7231 39.9453 23.0087 42.001 19.4523 42.001C15.5585 42.001 16.6042 39.3379 14.624 38.7841C12.9879 38.3265 10.9987 39.2893 9.5101 38.4706C7.79682 37.2246 8.69139 35.8487 8.316 35.3555C8.15793 35.1479 7.95257 34.9661 6.8623 34.8104C7.45936 34.1355 8.70037 34.0238 9.38031 34.447C10.205 34.9602 9.56982 36.0004 10.2889 36.6535C11.4288 37.6888 12.9175 37.0968 14.0529 36.0564C14.9801 35.2067 15.4964 34.3272 14.8836 33.2289C14.3945 32.3524 12.7639 32.7683 12.0541 32.0588C16.6747 31.5655 17.765 27.7256 17.765 27.7256C17.765 27.7256 16.0244 30.2636 14.8836 29.5687C14.1053 29.0946 14.7147 28.0146 14.0529 27.3882C12.9151 26.3111 11.0686 28.9205 10.0552 27.7256C9.18772 26.7027 10.8597 25.5128 10.2889 24.2991C9.77 23.1959 7.84874 23.4924 7.84874 22.3522C8.316 19.0534 13.1644 21.0535 16.519 18.4845Z" fill="url(#paint0_linear_224_484)"/>
<path d="M16.5189 18.4845C20.3638 15.5401 19.5042 8.43845 25.5006 8.02291C33.2104 7.48864 31.6269 16.4316 35.9101 20.9756C37.7727 22.9516 40.6865 20.2735 42.9968 24.2991C42.3652 23.8398 40.7436 23.3366 39.3107 24.998C38.8538 23.6274 37.857 24.8076 37.5455 25.3095C36.7882 26.5295 36.5227 28.4038 37.208 29.3591C36.5331 30.7349 35.0157 30.4493 34.664 30.1378C33.7555 29.3331 33.7036 25.4393 33.4699 24.1154C33.444 26.2613 32.9144 30.7245 31.0039 31.4098C28.6157 32.2664 27.4475 31.8251 27.0841 33.0971C26.7933 34.1147 27.5513 34.7498 27.9667 34.9402C27.6465 35.6497 26.5805 37.0117 24.8776 36.7833C22.749 36.4977 21.6587 35.044 21.2434 34.7585C20.828 34.4729 19.8935 34.3172 19.0369 34.6027C18.3176 34.8425 17.0803 35.667 17.1938 36.7833C17.2783 37.6139 18.5177 37.6918 17.5053 38.1331C16.0454 38.7695 15.1171 37.588 15.2209 37.0169C14.7277 37.1467 13.1702 36.965 13.7672 35.3555C14.0602 34.5658 14.6239 33.9538 14.3124 33.2788C13.8918 32.3675 12.7638 32.7683 12.054 32.0588C16.6746 31.5656 17.7649 27.7256 17.7649 27.7256C17.7649 27.7256 16.8652 29.0487 15.9613 29.5007C16.9736 28.4624 17.064 24.6865 15.1171 24.7903C14.7537 24.9461 14.6239 25.2057 14.546 25.8287C12.7029 25.6729 13.4073 23.6481 12.5991 22.7136C11.7684 21.7531 8.57548 20.4812 7.84863 22.3522C8.31589 19.0534 13.1643 21.0535 16.5189 18.4845Z" fill="url(#paint1_linear_224_484)"/>
<ellipse cx="23.4517" cy="15.016" rx="1.78635" ry="3.18529" transform="rotate(7.04122 23.4517 15.016)" fill="black"/>
<ellipse cx="1.78635" cy="3.18529" rx="1.78635" ry="3.18529" transform="matrix(-0.992458 0.122583 0.122583 0.992458 29.7305 11.6357)" fill="black"/>
<ellipse cx="25.9047" cy="20.9562" rx="1.31286" ry="2.3244" fill="black"/>
<defs>
<linearGradient id="paint0_linear_224_484" x1="25.0001" y1="8" x2="25.0001" y2="42.001" gradientUnits="userSpaceOnUse">
<stop stop-color="#1F1F1F"/>
<stop offset="1" stop-color="#282828"/>
</linearGradient>
<linearGradient id="paint1_linear_224_484" x1="25.4227" y1="8" x2="25.4227" y2="38.3163" gradientUnits="userSpaceOnUse">
<stop stop-color="#D0D0D0"/>
<stop offset="1" stop-color="#B6B6B6"/>
</linearGradient>
</defs>
</svg>
