<svg xmlns="http://www.w3.org/2000/svg" width="50" height="50" fill="none"><path fill="#fff" d="M0 0h50v50H0z"/><path fill="#000" d="M21.488 31.71a.7.7 0 0 0 .118.19c.054.058.121.087.21.051.084-.032.106-.09.1-.16-.007-.072-.039-.152-.067-.233a5 5 0 0 0-.112-.267 4 4 0 0 0-.122-.264c-.31-.67-.603-1.24-.878-1.803-.274-.563-.53-1.13-.77-1.796-.44-1.23-.77-2.48-.973-3.748a19.2 19.2 0 0 1-.23-3.863q.106-2.426.849-4.643a17.4 17.4 0 0 1 2.101-4.22q.122-.18.25-.358.13-.178.255-.351l.057-.077a1 1 0 0 1 .064-.071c.061-.065.102-.1.138-.097.035.003.076.032.108.148 0 0 .122.467.192.83.06.304.14.848.14.848.067.425.067.846.026 1.265a9 9 0 0 1-.22 1.25q-.12.503-.246 1.007-.124.503-.234 1.01a4 4 0 0 0-.057.42c-.013.141-.016.283-.022.424q-.019.426.083.828.1.398.31.77c.08.14.166.283.252.421l.258.415c.182.293.361.59.543.883l.543.878c.29.467.498.957.645 1.469.147.508.237 1.04.288 1.58.083.882.08 1.752-.003 2.618a17 17 0 0 1-.45 2.579l-.03.132-.031.158q.391 0 .779.003.387.002.766.003a1 1 0 0 0-.01-.11 1 1 0 0 1-.015-.116c-.035-.283-.08-.566-.119-.853-.038-.283-.076-.566-.095-.853-.061-.843-.067-1.68.032-2.505.099-.824.303-1.629.66-2.414.221-.486.464-.96.742-1.41.277-.451.59-.876.958-1.272.35-.377.6-.802.782-1.253a6.3 6.3 0 0 0 .367-1.435c.1-.664.14-1.324.134-1.987a15 15 0 0 0-.156-1.986c-.01-.055-.022-.116-.026-.177a.27.27 0 0 1 .026-.162c.057-.067.137-.054.214-.012.08.041.156.115.21.174.659.672 1.233 1.39 1.706 2.17a9.8 9.8 0 0 1 1.092 2.553c.22.82.32 1.635.316 2.446a11 11 0 0 1-.297 2.438c-.166.73-.383 1.442-.638 2.144a25 25 0 0 1-.866 2.06 46 46 0 0 1-1.086 2.167c-.38.712-.782 1.413-1.216 2.115q-.021.034-.045.08a.3.3 0 0 0-.026.107c0 .023.016.055.032.08l.032.046q.713.772 1.233 1.635c.348.58.636 1.191.869 1.848.038.113.08.222.118.335q.058.168.121.332a.3.3 0 0 0 .051.1c.023.025.055.038.096.019.026-.01.048-.039.067-.071a.2.2 0 0 0 .029-.097 3 3 0 0 0-.02-.231 2 2 0 0 0-.04-.229 7 7 0 0 0-.531-1.488 7.8 7.8 0 0 0-.83-1.339q-.115-.152-.233-.302-.116-.15-.24-.297a.45.45 0 0 1-.115-.254.47.47 0 0 1 .07-.27q.217-.386.428-.776.212-.389.425-.776l.029-.049.028-.048a.4.4 0 0 1 .183-.183.45.45 0 0 1 .265-.02q.474.085.948.155.474.071.949.158c.795.148 1.584.322 2.363.534.779.216 1.545.47 2.296.78.354.144.709.302 1.047.479q.515.264.98.605c.164.123.317.255.47.39.154.135.3.277.45.412q.062.059.119.132.053.072.102.145.453.642.447 1.294c-.003.431-.163.863-.473 1.285q-.235.314-.523.57c-.192.17-.4.328-.614.47a9.4 9.4 0 0 1-1.29.718c-.444.206-.904.383-1.373.544-.7.241-1.405.44-2.12.608q-1.073.25-2.166.419a39 39 0 0 1-3.66.402 44 44 0 0 1-3.681.077 45 45 0 0 1-4.267-.28 35 35 0 0 1-4.212-.743 22 22 0 0 1-1.99-.574 16 16 0 0 1-1.916-.792 9 9 0 0 1-.853-.476 7 7 0 0 1-.785-.58 5 5 0 0 1-.419-.409q-.194-.216-.35-.466a1.9 1.9 0 0 1-.301-.854q-.039-.435.137-.895.12-.303.297-.566.178-.264.403-.496.327-.336.702-.599.374-.265.786-.486c.485-.26.983-.48 1.494-.67s1.035-.35 1.562-.492c.75-.203 1.51-.367 2.274-.502a35 35 0 0 1 2.306-.326q.093-.008.188-.022l.188-.023q.1-.014.173.026t.112.129"/><path stroke="#000" stroke-miterlimit="10" stroke-width=".01" d="M21.488 31.71a.7.7 0 0 0 .118.19c.054.058.121.087.21.051.084-.032.106-.09.1-.16-.007-.072-.039-.152-.067-.233a5 5 0 0 0-.112-.267 4 4 0 0 0-.122-.264c-.31-.67-.603-1.24-.878-1.803-.274-.563-.53-1.13-.77-1.796-.44-1.23-.77-2.48-.973-3.748a19.2 19.2 0 0 1-.23-3.863q.106-2.426.849-4.643a17.4 17.4 0 0 1 2.101-4.22q.122-.18.25-.358.13-.178.255-.351l.057-.077a1 1 0 0 1 .064-.071c.061-.065.102-.1.138-.097.035.003.076.032.108.148 0 0 .122.467.192.83.06.304.14.848.14.848.067.425.067.846.026 1.265a9 9 0 0 1-.22 1.25q-.12.503-.246 1.007-.124.503-.234 1.01a4 4 0 0 0-.057.42c-.013.141-.016.283-.022.424q-.019.426.083.828.1.398.31.77c.08.14.166.283.252.421l.258.415c.182.293.361.59.543.883l.543.878c.29.467.498.957.645 1.469.147.508.237 1.04.288 1.58.083.882.08 1.752-.003 2.618a17 17 0 0 1-.45 2.579l-.03.132-.031.158q.391 0 .779.003.387.002.766.003a1 1 0 0 0-.01-.11 1 1 0 0 1-.015-.116c-.035-.283-.08-.566-.119-.853-.038-.283-.076-.566-.095-.853-.061-.843-.067-1.68.032-2.505.099-.824.303-1.629.66-2.414.221-.486.464-.96.742-1.41.277-.451.59-.876.958-1.272.35-.377.6-.802.782-1.253a6.3 6.3 0 0 0 .367-1.435c.1-.664.14-1.324.134-1.987a15 15 0 0 0-.156-1.986c-.01-.055-.022-.116-.026-.177a.27.27 0 0 1 .026-.162c.057-.067.137-.054.214-.012.08.041.156.115.21.174.659.672 1.233 1.39 1.706 2.17a9.8 9.8 0 0 1 1.092 2.553c.22.82.32 1.635.316 2.446a11 11 0 0 1-.297 2.438c-.166.73-.383 1.442-.638 2.144a25 25 0 0 1-.866 2.06 46 46 0 0 1-1.086 2.167c-.38.712-.782 1.413-1.216 2.115q-.021.034-.045.08a.3.3 0 0 0-.026.107c0 .023.016.055.032.08l.032.046q.713.772 1.233 1.635c.348.58.636 1.191.869 1.848.038.113.08.222.118.335q.058.168.121.332a.3.3 0 0 0 .051.1c.023.025.055.038.096.019.026-.01.048-.039.067-.071a.2.2 0 0 0 .029-.097 3 3 0 0 0-.02-.231 2 2 0 0 0-.04-.229 7 7 0 0 0-.531-1.488 7.8 7.8 0 0 0-.83-1.339q-.115-.152-.233-.302-.116-.15-.24-.297a.45.45 0 0 1-.115-.254.47.47 0 0 1 .07-.27q.217-.386.428-.776.212-.389.425-.776l.029-.049.028-.048a.4.4 0 0 1 .183-.183.45.45 0 0 1 .265-.02q.474.085.948.155.474.071.949.158c.795.148 1.584.322 2.363.534.779.216 1.545.47 2.296.78.354.144.709.302 1.047.479q.515.264.98.605c.164.123.317.255.47.39.154.135.3.277.45.412q.062.059.119.132.053.072.102.145.453.642.447 1.294c-.003.431-.163.863-.473 1.285q-.235.314-.523.57c-.192.17-.4.328-.614.47a9.4 9.4 0 0 1-1.29.718c-.444.206-.904.383-1.373.544-.7.241-1.405.44-2.12.608q-1.073.25-2.166.419a39 39 0 0 1-3.66.402 44 44 0 0 1-3.681.077 45 45 0 0 1-4.267-.28 35 35 0 0 1-4.212-.743 22 22 0 0 1-1.99-.574 16 16 0 0 1-1.916-.792 9 9 0 0 1-.853-.476 7 7 0 0 1-.785-.58 5 5 0 0 1-.419-.409q-.194-.216-.35-.466a1.9 1.9 0 0 1-.301-.854q-.039-.435.137-.895.12-.303.297-.566.178-.264.403-.496.327-.336.702-.599.374-.265.786-.486c.485-.26.983-.48 1.494-.67s1.035-.35 1.562-.492c.75-.203 1.51-.367 2.274-.502a35 35 0 0 1 2.306-.326q.093-.008.188-.022l.188-.023q.1-.014.173.026t.112.129"/></svg>
