<svg width="50" height="50" viewBox="0 0 50 50" fill="none" xmlns="http://www.w3.org/2000/svg">
<rect width="50" height="50" rx="12" fill="#FAFAFA"/>
<path d="M21.26 32.3096C21.26 32.3096 12.5332 20.1498 21.7133 9C22.8466 12.3428 21.253 15.8818 21.3732 17.3616C21.5817 19.9268 25.8692 19.107 23.98 30.079C24.7733 30.0759 24.8865 30.0759 25.6799 30.079C25.3399 27.0646 25.0172 23.387 27.7199 20.819C31.0066 17.6962 29.42 12.792 29.42 12.792C29.42 12.792 38.3733 17.9193 28.5134 32.3096C30.4436 33.9794 31.5769 36.9907 31.5769 36.9907C31.5769 36.9907 30.8969 33.6448 29.42 32.3096C29.5998 31.3518 30.5534 30.079 30.5534 30.079C30.5534 30.079 42 31.6373 42 35.4324C42 43.0265 7.9977 42.6833 8 35.4324C8.00149 30.7451 19.3369 30.0759 19.3369 30.0759C19.3369 30.0759 19.8211 31.0479 20.2435 31.5258C20.5995 31.9286 21.26 32.3096 21.26 32.3096Z" fill="#0A0A0A"/>
</svg>
