<svg width="50" height="50" viewBox="0 0 50 50" fill="none" xmlns="http://www.w3.org/2000/svg">
<rect width="50" height="50" rx="10" fill="#FAFAFA"/>
<path d="M22.6322 31.6L19.6725 33.4C19.6725 33.4 17.8966 31.6 16.7127 29.2C15.5288 26.8 19.6725 22.6 19.6725 22.6M22.6322 31.6H27.3678M22.6322 31.6C22.6322 31.6 19.0805 23.2 20.2644 18.4C21.4483 13.6 25 10 25 10C25 10 28.5517 13.6 29.7356 18.4C30.9195 23.2 27.3678 31.6 27.3678 31.6M27.3678 31.6L30.3275 33.4C30.3275 33.4 32.1034 31.6 33.2873 29.2C34.4712 26.8 30.3275 22.6 30.3275 22.6M25 40L26.1839 36.4H23.8161L25 40ZM25.5919 19C25.9189 19.3314 25.9189 19.8686 25.5919 20.2C25.265 20.5314 24.735 20.5314 24.4081 20.2C24.0811 19.8686 24.0811 19.3314 24.4081 19C24.735 18.6686 25.265 18.6686 25.5919 19Z" stroke="#0A0A0A" stroke-width="2" stroke-linecap="round" stroke-linejoin="round"/>
</svg>
