<svg width="50" height="50" viewBox="0 0 50 50" fill="none" xmlns="http://www.w3.org/2000/svg">
<rect width="50" height="50" rx="10" fill="#FAFAFA"/>
<path d="M13.4271 11.4317C14.0001 10.8587 14.9291 10.8587 15.5021 11.4317L38.5684 34.4979C39.1414 35.0709 39.1414 35.9999 38.5684 36.5729L36.5711 38.5702C35.9981 39.1432 35.069 39.1432 34.496 38.5702L11.4297 15.504C10.8567 14.931 10.8568 14.002 11.4298 13.429L13.4271 11.4317Z" fill="#0A0A0A"/>
<path d="M20.8169 27.1858C20.2439 26.6128 19.3149 26.6128 18.7419 27.1858L11.4298 34.4979C10.8568 35.0709 10.8568 35.9999 11.4298 36.5729L13.4271 38.5702C14.0001 39.1432 14.9291 39.1432 15.5021 38.5702L22.8142 31.2581C23.3872 30.6851 23.3872 29.7561 22.8142 29.1831L20.8169 27.1858Z" fill="#0A0A0A"/>
<path d="M36.5729 11.4297C35.9999 10.8568 35.0709 10.8567 34.4979 11.4297L27.2647 18.6629C26.6917 19.2359 26.6917 20.1649 27.2647 20.7379L29.2621 22.7352C29.8351 23.3082 30.7641 23.3082 31.3371 22.7352L38.5703 15.5021C39.1433 14.9291 39.1433 14.0001 38.5703 13.4271L36.5729 11.4297Z" fill="#0A0A0A"/>
</svg>
