<svg width="50" height="50" viewBox="0 0 50 50" fill="none" xmlns="http://www.w3.org/2000/svg">
<rect width="50" height="50" rx="10" fill="#FAFAFA"/>
<path d="M25 40C24.2689 40 23.5515 39.8038 22.9249 39.4324L13.4699 33.8408C12.8681 33.4857 12.3682 32.9813 12.0229 32.3797C11.6858 31.7797 11.505 31.105 11.5 30.4191V18.9619C11.4974 18.2693 11.6776 17.5879 12.023 16.9848C12.3684 16.3817 12.8671 15.8777 13.4699 15.5224L22.9249 10.5519C23.555 10.1904 24.271 10 25 10C25.729 10 26.445 10.1904 27.0751 10.5519L36.5301 15.5224C37.1332 15.8778 37.632 16.3821 37.9774 16.9855C38.3228 17.5889 38.5029 18.2706 38.5 18.9635V30.4175C38.495 31.105 38.3142 31.7797 37.9771 32.3797C37.6318 32.9813 37.1319 33.4857 36.5301 33.8408L27.0751 39.4324C26.4485 39.8038 25.7311 40 25 40ZM25 40V24.6913M37.959 17.0175L25 24.6913M25 24.6913L12.041 17.0178M32.2022 26.5143V20.4249L18.5312 12.8728" stroke="#0A0A0A" stroke-width="2" stroke-linecap="round" stroke-linejoin="round"/>
</svg>
