<svg width="50" height="50" viewBox="0 0 50 50" fill="none" xmlns="http://www.w3.org/2000/svg">
<rect width="50" height="50" rx="10" fill="#FAFAFA"/>
<path d="M24.6553 10.0146C30.5716 9.67669 33.8258 15.3311 33.6973 22.2012C36.8113 23.2957 43.2965 29.7277 40.2539 35.2129C37.3309 40.482 32.0258 41.4688 24.998 37.5264C22.4267 39.4119 13.5135 42.7545 9.87109 35.7695C7.17646 30.602 10.7712 24.7991 16.085 22.2012C15.9136 19.1818 17.1134 10.4457 24.6553 10.0146ZM16.5566 26.7295C15.0139 27.758 12.571 30.4152 13.5566 33.3721C14.5209 36.2647 18.6564 36.2432 21.2275 34.8291C18.6135 32.1722 17.2766 29.2321 16.5566 26.7295ZM33.2266 26.7295C32.6781 30.5346 29.9129 33.7148 28.5986 34.8291C31.0841 36.0716 35.0814 36.1786 36.3545 33.3721C37.5388 30.761 33.9696 27.1154 33.2266 26.7295ZM29.3691 24.7158C27.8691 24.1302 23.9782 23.3103 20.4131 24.7158C20.5988 26.2872 21.6135 29.9866 24.9131 32.6006C26.5272 31.3149 29.1977 27.8868 29.3691 24.7158ZM24.9131 14.3877C22.3848 14.3877 20.9707 16.9595 20.2422 20.3447C22.2991 19.7449 25.4701 19.402 29.498 20.3447C29.498 18.3737 27.6127 14.388 24.9131 14.3877Z" fill="#0A0A0A"/>
</svg>
