<svg width="50" height="50" viewBox="0 0 50 50" fill="none" xmlns="http://www.w3.org/2000/svg">
<rect width="50" height="50" rx="10" fill="#FAFAFA"/>
<path d="M25 40L24.4082 40.8061C24.7622 41.066 25.2443 41.0645 25.5967 40.8025L25 40ZM11.5341 30.1136H10.5341C10.5341 30.432 10.6857 30.7313 10.9423 30.9197L11.5341 30.1136ZM38.2955 30.1136L38.8922 30.9161C39.1459 30.7274 39.2955 30.4298 39.2955 30.1136H38.2955ZM11.5341 21.4205L10.9558 20.6046C10.6913 20.7921 10.5341 21.0962 10.5341 21.4205H11.5341ZM25 11.875L25.5832 11.0627L25.0037 10.6466L24.4217 11.0592L25 11.875ZM38.2955 21.4205H39.2955C39.2955 21.0984 39.1403 20.796 38.8787 20.6081L38.2955 21.4205ZM9.4 34.5977C8.95817 34.9291 8.86863 35.5559 9.2 35.9977C9.53137 36.4396 10.1582 36.5291 10.6 36.1977L10 35.3977L9.4 34.5977ZM16.7364 31.5955C17.1782 31.2641 17.2677 30.6373 16.9364 30.1955C16.605 29.7536 15.9782 29.6641 15.5364 29.9955L16.1364 30.7955L16.7364 31.5955ZM13.4909 37.6659C13.0491 37.9973 12.9595 38.6241 13.2909 39.0659C13.6223 39.5077 14.2491 39.5973 14.6909 39.2659L14.0909 38.4659L13.4909 37.6659ZM20.8273 34.6636C21.2691 34.3323 21.3586 33.7055 21.0273 33.2636C20.6959 32.8218 20.0691 32.7323 19.6273 33.0636L20.2273 33.8636L20.8273 34.6636ZM39.4 36.1977C39.8418 36.5291 40.4686 36.4396 40.8 35.9977C41.1314 35.5559 41.0418 34.9291 40.6 34.5977L40 35.3977L39.4 36.1977ZM34.4636 29.9955C34.0218 29.6641 33.395 29.7536 33.0636 30.1955C32.7323 30.6373 32.8218 31.2641 33.2636 31.5955L33.8636 30.7955L34.4636 29.9955ZM35.3091 39.2659C35.7509 39.5973 36.3777 39.5077 36.7091 39.0659C37.0405 38.6241 36.9509 37.9973 36.5091 37.6659L35.9091 38.4659L35.3091 39.2659ZM30.3727 33.0636C29.9309 32.7323 29.3041 32.8218 28.9727 33.2636C28.6414 33.7055 28.7309 34.3323 29.1727 34.6636L29.7727 33.8636L30.3727 33.0636ZM40.2591 13.8682C40.7009 13.5368 40.7905 12.91 40.4591 12.4682C40.1277 12.0264 39.5009 11.9368 39.0591 12.2682L39.6591 13.0682L40.2591 13.8682ZM32.9227 16.8705C32.4809 17.2018 32.3914 17.8286 32.7227 18.2705C33.0541 18.7123 33.6809 18.8018 34.1227 18.4705L33.5227 17.6705L32.9227 16.8705ZM36.1682 10.8C36.61 10.4686 36.6996 9.84183 36.3682 9.4C36.0368 8.95817 35.41 8.86863 34.9682 9.2L35.5682 10L36.1682 10.8ZM28.8318 13.8023C28.39 14.1336 28.3004 14.7604 28.6318 15.2023C28.9632 15.6441 29.59 15.7336 30.0318 15.4023L29.4318 14.6023L28.8318 13.8023ZM11.2818 12.2682C10.84 11.9368 10.2132 12.0264 9.88182 12.4682C9.55045 12.91 9.63999 13.5368 10.0818 13.8682L10.6818 13.0682L11.2818 12.2682ZM16.2182 18.4705C16.66 18.8018 17.2868 18.7123 17.6182 18.2705C17.9496 17.8286 17.86 17.2018 17.4182 16.8705L16.8182 17.6705L16.2182 18.4705ZM15.3727 9.2C14.9309 8.86863 14.3041 8.95817 13.9727 9.4C13.6414 9.84183 13.7309 10.4686 14.1727 10.8L14.7727 10L15.3727 9.2ZM20.3091 15.4023C20.7509 15.7336 21.3777 15.6441 21.7091 15.2023C22.0405 14.7604 21.9509 14.1336 21.5091 13.8023L20.9091 14.6023L20.3091 15.4023ZM25 40L25.5918 39.1939L12.1259 29.3076L11.5341 30.1136L10.9423 30.9197L24.4082 40.8061L25 40ZM38.2955 30.1136L37.6988 29.3112L24.4033 39.1975L25 40L25.5967 40.8025L38.8922 30.9161L38.2955 30.1136ZM25 31.3068L25.5918 30.5007L12.1259 20.6144L11.5341 21.4205L10.9423 22.2265L24.4082 32.1129L25 31.3068ZM11.5341 21.4205L12.1124 22.2363L25.5783 12.6908L25 11.875L24.4217 11.0592L10.9558 20.6046L11.5341 21.4205ZM25 11.875L24.4168 12.6873L37.7122 22.2328L38.2955 21.4205L38.8787 20.6081L25.5832 11.0627L25 11.875ZM38.2955 21.4205L37.6988 20.618L24.4033 30.5044L25 31.3068L25.5967 32.1093L38.8922 22.2229L38.2955 21.4205ZM38.2955 30.1136H39.2955V21.4205H38.2955H37.2955V30.1136H38.2955ZM25 31.3068H24V40H25H26V31.3068H25ZM11.5341 30.1136H12.5341V21.4205H11.5341H10.5341V30.1136H11.5341ZM10 35.3977L10.6 36.1977L16.7364 31.5955L16.1364 30.7955L15.5364 29.9955L9.4 34.5977L10 35.3977ZM14.0909 38.4659L14.6909 39.2659L20.8273 34.6636L20.2273 33.8636L19.6273 33.0636L13.4909 37.6659L14.0909 38.4659ZM40 35.3977L40.6 34.5977L34.4636 29.9955L33.8636 30.7955L33.2636 31.5955L39.4 36.1977L40 35.3977ZM35.9091 38.4659L36.5091 37.6659L30.3727 33.0636L29.7727 33.8636L29.1727 34.6636L35.3091 39.2659L35.9091 38.4659ZM39.6591 13.0682L39.0591 12.2682L32.9227 16.8705L33.5227 17.6705L34.1227 18.4705L40.2591 13.8682L39.6591 13.0682ZM35.5682 10L34.9682 9.2L28.8318 13.8023L29.4318 14.6023L30.0318 15.4023L36.1682 10.8L35.5682 10ZM10.6818 13.0682L10.0818 13.8682L16.2182 18.4705L16.8182 17.6705L17.4182 16.8705L11.2818 12.2682L10.6818 13.0682ZM14.7727 10L14.1727 10.8L20.3091 15.4023L20.9091 14.6023L21.5091 13.8023L15.3727 9.2L14.7727 10Z" fill="#0A0A0A"/>
</svg>
