<svg width="50" height="50" viewBox="0 0 50 50" fill="none" xmlns="http://www.w3.org/2000/svg">
<rect width="50" height="50" rx="10" fill="#FAFAFA"/>
<path d="M13.4418 40.5667C17.1446 36.8934 24.0515 31.9257 24.1181 23.7387C24.1212 23.35 24.2199 22.9661 24.4085 22.6262C26.0651 19.6402 28.3808 13.7653 28.3808 21.0058C28.3808 35.2363 31.4536 37.677 34.1793 39.5453C35.4919 40.445 34.8047 41.9998 33.2133 41.9998H14.0467C13.6819 41.9998 13.3581 41.7664 13.2428 41.4204C13.1428 41.1205 13.2173 40.7893 13.4418 40.5667Z" fill="#0A0A0A"/>
<path d="M21.2642 14.3789C20.6733 15.5607 21.5248 16.6971 22.4985 17.4816C23.1901 18.0389 24.1731 17.8481 24.7527 17.1751C26.3162 15.3598 28.2557 12.8119 28.0247 11.8881C27.6689 10.4648 23.755 6.90646 24.8222 8.32978C25.8894 9.7531 22.3317 12.2439 21.2642 14.3789Z" fill="#0A0A0A"/>
</svg>
