<svg width="50" height="50" viewBox="0 0 50 50" fill="none" xmlns="http://www.w3.org/2000/svg">
<rect width="50" height="50" rx="10" fill="#FAFAFA"/>
<path fill-rule="evenodd" clip-rule="evenodd" d="M33.9484 16.6235C32.0666 17.2221 31.8674 17.2943 31.9422 17.3513C31.9606 17.3654 32.8602 17.6877 33.9412 18.0675L35.9066 18.7581L37.7315 18.1095C38.7352 17.7528 39.6472 17.4268 39.7581 17.3852L39.9597 17.3093L39.7908 17.2453C39.6979 17.21 38.7863 16.9154 37.765 16.5906L35.9081 16L33.9484 16.6235ZM12.3589 16.7512L10 16.7723V17.7239V18.6755H10.9274H11.8548V25.6628C11.8548 29.5478 11.8859 32.6502 11.9247 32.6502C11.9869 32.6502 14.1279 30.4521 19.2742 25.1049C20.7006 23.6227 23.1287 21.1117 26.3911 17.7449C26.868 17.2529 27.2581 16.8232 27.2581 16.7902C27.2581 16.7572 26.0621 16.748 24.6002 16.7699L21.9424 16.8096L18.4107 20.0186L14.879 23.2277L14.8579 20.0217C14.8464 18.2584 14.8101 16.7965 14.7773 16.7729C14.7445 16.7494 13.6563 16.7396 12.3589 16.7512ZM31.8548 20.4474V22.775L33.5783 23.544C34.5263 23.967 35.3252 24.313 35.3537 24.313C35.3823 24.313 35.396 23.2359 35.3843 21.9195L35.3629 19.5259L33.6369 18.8228C32.6877 18.4361 31.8984 18.1197 31.8829 18.1197C31.8675 18.1197 31.8548 19.1672 31.8548 20.4474ZM38.1048 18.8358L36.4113 19.5386L36.3899 21.9258C36.3782 23.2388 36.3993 24.313 36.4367 24.313C36.5303 24.313 39.7739 22.8801 39.8992 22.7833L40 22.7055V21.6163C40 20.2087 39.9079 18.1178 39.8463 18.1264C39.8199 18.13 39.0363 18.4493 38.1048 18.8358ZM23.5348 24.0766C22.9296 24.1772 22.261 24.3887 21.7582 24.6386L21.2903 24.8711V26.2198V27.5685H22.4597H23.629V27.0087C23.629 26.3396 23.7593 26.0507 24.1417 25.8721C24.6536 25.6329 25.3603 25.7636 25.5621 26.1349C25.6814 26.3543 25.6644 26.7456 25.5241 27.0129C25.4512 27.1516 24.7204 27.7459 23.6894 28.5046C21.8406 29.8653 21.3506 30.3192 21.2162 30.7958C21.1688 30.9641 21.1298 31.7539 21.1295 32.5509L21.129 34H24.6774H28.2258V32.41V30.8199L26.9556 30.8418L25.6855 30.8636L25.6444 31.3169C25.6219 31.5662 25.5628 31.8102 25.5132 31.859C25.3728 31.9973 24.8544 32.0904 24.2137 32.0925L23.629 32.0944V31.8669C23.629 31.7417 23.7056 31.5436 23.799 31.4266C23.8925 31.3096 24.6824 30.6836 25.5544 30.0355C27.2664 28.7631 27.7424 28.3179 28.0078 27.7413L28.1787 27.37L28.1774 26.576L28.1762 25.7819L27.9961 25.4166C27.4987 24.4073 26.5045 23.9845 24.6774 24.0053C24.256 24.0102 23.7419 24.0423 23.5348 24.0766Z" fill="#0A0A0A"/>
</svg>
