<svg width="50" height="50" viewBox="0 0 50 50" fill="none" xmlns="http://www.w3.org/2000/svg">
<rect width="50" height="50" rx="10" fill="#FAFAFA"/>
<path d="M15.2373 17.7023L16.8358 28.5405H16.9659L22.3734 17.7023H26.6107L18.725 32.5H13.6846L11 17.7023H15.2373Z" fill="#0A0A0A"/>
<path d="M25.6661 32.5L26.1173 29.9277L32.6645 25.2023C33.1591 24.8362 33.5823 24.499 33.9341 24.1908C34.2911 23.8825 34.5766 23.5742 34.7908 23.2659C35.0049 22.9576 35.1426 22.6204 35.2038 22.2543C35.2752 21.8449 35.242 21.4933 35.1044 21.1994C34.9667 20.9056 34.7474 20.6816 34.4466 20.5275C34.1458 20.3685 33.7837 20.289 33.3605 20.289C32.9271 20.289 32.5294 20.3733 32.1673 20.5419C31.8053 20.7057 31.5045 20.9465 31.2648 21.2645C31.0302 21.5776 30.8747 21.9557 30.7982 22.3988H27.2034C27.3819 21.3921 27.7771 20.5226 28.389 19.7905C29.0008 19.0583 29.7759 18.4947 30.7141 18.0997C31.6523 17.6999 32.7002 17.5 33.8577 17.5C35.0406 17.5 36.0375 17.6879 36.8482 18.0636C37.6641 18.4393 38.253 18.9644 38.615 19.6387C38.9822 20.3083 39.0867 21.0862 38.9286 21.9725C38.8267 22.5361 38.6049 23.0949 38.2632 23.6488C37.9267 24.198 37.3887 24.8097 36.6494 25.4841C35.91 26.1537 34.8928 26.9557 33.5976 27.8902L31.4407 29.5231L31.4178 29.6171H37.7737L37.2613 32.5H25.6661Z" fill="#0A0A0A"/>
</svg>
